<?xml version="1.0" encoding="UTF-8"?><svg xmlns="http://www.w3.org/2000/svg" xmlns:xlink="http://www.w3.org/1999/xlink" viewBox="0 0 50 50" version="1.1"><path d="M0 13.02l8 25.96 5.09-16 4.91 16 7.367-22.964h6.258L26 24.469V26h1.309C32.457 26 33 29.14 33 30.691c0 4.543-3.02 5.293-3.938 5.293-.87 0-1.628-.472-2.269-1.035-.645-.562-1.164-1.332-1.559-2.308l-2.683 1.082c.547 1.613 1.387 2.894 2.523 3.84 1.133.945 2.461 1.417 3.988 1.417 2.032 0 3.684-.796 4.961-2.386 1.278-1.594 1.914-3.559 1.914-5.899 0-2.324-1.062-6.566-5.937-7.433l6-8.532v-1.71H22.746L18 28.875 13.254 13.02H9.82l1.57 5.277-3.21 10.578L3.438 13.02zm49 0l-1.688 3.394s-.832-1.5-1.656-2.184c-.781-.652-1.797-1.253-3.082-1.125-1.242.125-2.64 1.188-3.586 2.961-1.066 2.016-1.433 4.059-1.441 6.313-.008 3.156 1.187 5.312 1.187 5.312s-.273-1.003-.23-2.699c.031-1.058.039-2.207.855-4.586.688-1.988 2.258-3.601 3.645-3.879 1.078-.218 1.766-.058 2.824.664 1.258.864 2.172 2.422 2.172 2.422l2-3.672zM36.332 31.348s.488 1.53.793 2.183c.172.375.71 1.52 1.473 2.516.71.93 2.09 2.531 4.187 2.89 2.102.364 3.543-.554 3.903-.777.355-.222 1.109-.836 1.582-1.332.5-.52.968-1.18 1.23-1.574.188-.29.5-.875.5-.875l-.5-2.547s-.871 1.516-1.414 2.102c-.543.586-1.516 1.613-2.711 2.129-1.2.511-1.832.609-3.016.5-1.183-.114-2.285-.782-2.672-1.06-.382-.276-1.367-1.097-1.925-1.862-.559-.766-1.43-2.293-1.43-2.293z" id="surface1"/><metadata><rdf:RDF xmlns:rdf="http://www.w3.org/1999/02/22-rdf-syntax-ns#" xmlns:rdfs="http://www.w3.org/2000/01/rdf-schema#" xmlns:dc="http://purl.org/dc/elements/1.1/"><rdf:Description about="https://iconscout.com/legal#licenses" dc:title="wc,filled" dc:description="wc,filled" dc:publisher="Iconscout" dc:date="2017-12-09" dc:format="image/svg+xml" dc:language="en"><dc:creator><rdf:Bag><rdf:li>Icons8</rdf:li></rdf:Bag></dc:creator></rdf:Description></rdf:RDF></metadata></svg>